<?xml version="1.0" encoding="UTF-8"?>
<svg xmlns="http://www.w3.org/2000/svg" xmlns:xlink="http://www.w3.org/1999/xlink" viewBox="0 0 50 50" width="50px" height="50px">
<g id="surface1673036">
<path style=" stroke:none;fill-rule:nonzero;fill:rgb(99.215686%,72.941178%,45.490196%);fill-opacity:1;" d="M 5 4 C 4.449219 4 4 4.449219 4 5 L 4 45 C 4 45.550781 4.449219 46 5 46 L 45 46 C 45.550781 46 46 45.550781 46 45 L 46 5 C 46 4.449219 45.550781 4 45 4 Z M 6 6 L 44 6 L 44 44 L 6 44 Z M 15 23 L 15 26.445312 L 20 26.445312 L 20 42 L 24 42 L 24 26.445312 L 29 26.445312 L 29 23 Z M 36.691406 23.011719 C 33.578125 22.996094 30.019531 23.941406 30.019531 28.324219 C 30.019531 34.054688 37.738281 34.054688 37.738281 36.640625 C 37.738281 36.886719 37.84375 38.667969 35.117188 38.667969 C 32.390625 38.667969 30.121094 36.953125 30.121094 36.953125 L 30.121094 41.113281 C 30.121094 41.113281 42.003906 44.953125 42.003906 36.289062 C 42 30.664062 34.210938 30.945312 34.210938 28.152344 C 34.210938 27.066406 34.976562 26.054688 37.109375 26.054688 C 39.242188 26.054688 41.128906 27.3125 41.128906 27.3125 L 41.269531 23.605469 C 41.269531 23.605469 39.113281 23.019531 36.691406 23.007812 Z M 36.691406 23.011719 "/>
</g>
</svg>
